<svg xmlns="http://www.w3.org/2000/svg" width="209.52" height="72"><path fill="#FBE7A8" d="M126.314 8.82c.601 2.077.869 4.25.803 6.528-.066 2.277-.587 4.505-1.558 6.681-.971 2.178-2.445 4.238-4.42 6.182-1.976 1.94-4.473 3.616-7.485 5.022-2.076 1.072-4.203 1.893-6.379 2.462-2.178.568-4.405.952-6.683 1.153 1.813 1.676 3.233 3.667 4.272 5.979 1.039 2.311 1.556 4.906 1.556 7.785 0 3.482-.702 6.517-2.107 9.092-1.413 2.58-3.169 4.774-5.279 6.582-2.108 1.81-4.451 3.164-7.032 4.066-2.579.909-4.975 1.396-7.181 1.46-2.348.135-5.058-.118-8.142-.752-3.081-.639-6.024-1.795-8.842-3.466-2.812-1.678-5.242-4.019-7.281-7.037-2.043-3.012-3.163-6.83-3.368-11.45-.198-4.623.27-8.657 1.407-12.107 1.141-3.446 2.65-6.314 4.523-8.588 1.875-2.278 3.936-4.019 6.181-5.226 2.243-1.206 4.402-1.941 6.478-2.211-1.475-1.338-2.379-3.181-2.715-5.523-.334-2.346-.113-4.624.657-6.833.768-2.21 2.109-4.152 4.018-5.828 1.909-1.672 4.368-2.576 7.387-2.71 3.012-.135 5.322.281 6.929 1.255 1.607.969 2.643 2.06 3.115 3.266.47 1.201.452 2.36-.049 3.463-.502 1.108-1.39 1.692-2.661 1.757-1.275.069-2.06-.201-2.362-.801-.304-.606-.455-1.271-.455-2.01 0-.738-.015-1.522-.05-2.359-.032-.839-.383-1.526-1.055-2.062-1.071-.536-2.244-.736-3.515-.601-1.272.134-2.446.601-3.517 1.406-1.071.801-1.926 1.99-2.562 3.566-.638 1.573-.887 3.465-.753 5.678.2 2.208.786 3.85 1.76 4.921.967 1.071 1.989 1.808 3.059 2.208 1.207.47 2.582.671 4.124.606v2.309c-1.542.069-3.183.271-4.923.604-1.476.267-3.099.686-4.872 1.255-1.775.568-3.435 1.422-4.977 2.564-1.607 1.07-2.964 2.394-4.067 3.965-1.103 1.574-1.995 3.369-2.662 5.376-.67 2.011-1.157 4.153-1.459 6.431-.298 2.275-.417 4.62-.353 7.032.069 2.346.536 4.709 1.407 7.084.871 2.38 2.093 4.521 3.672 6.43 1.571 1.909 3.496 3.451 5.776 4.619 2.272 1.174 4.787 1.794 7.534 1.861 2.813.064 5.559-.384 8.237-1.356 2.678-.97 5.024-2.328 7.032-4.069 2.01-1.741 3.651-3.698 4.928-5.879 1.269-2.174 1.908-4.402 1.908-6.681 0-3.347-.59-6.294-1.764-8.841-1.168-2.544-2.695-4.521-4.57-5.929-2.812.335-5.512.573-8.085.704-2.58.136-4.943.368-7.086.703-2.143.334-3.952.868-5.424 1.606-1.472.739-2.51 1.876-3.117 3.418-.935 2.277-1.302 4.304-1.103 6.079.201 1.774.737 3.313 1.606 4.619.871 1.309 1.943 2.33 3.217 3.065 1.272.735 2.577 1.104 3.917 1.104h3.418c1.071-.199 1.639-.584 1.705-1.153.07-.566-.065-1.087-.402-1.557l-.35-.352-.352-.352c-.601-.87-.903-1.775-.903-2.714 0-1.271.434-2.343 1.303-3.214.871-.869 1.941-1.309 3.218-1.309 1.27 0 2.358.439 3.265 1.309.904.871 1.354 1.942 1.354 3.214 0 .536-.167 1.173-.502 1.909-.602 1.741-1.522 3.114-2.761 4.12-1.242 1.002-2.58 1.706-4.018 2.109-1.443.399-2.932.552-4.474.45-1.54-.099-2.88-.315-4.018-.65-2.275-.805-4.104-2.326-5.472-4.574-1.375-2.24-2.061-4.7-2.061-7.384 0-2.677.736-5.306 2.206-7.886 1.477-2.579 3.819-4.636 7.036-6.182 1.474-.735 3.015-1.201 4.62-1.404l-.097-.099h.401c.065-.066.134-.102.199-.102 1.272-.266 2.813-.537 4.624-.802 1.807-.271 3.479-.47 5.02-.605 2.012-.2 3.986-.399 5.928-.601 4.624-.736 8.491-1.791 11.608-3.164 3.112-1.375 5.592-2.932 7.435-4.672 1.839-1.743 3.112-3.587 3.813-5.528.704-1.943.958-3.78.757-5.527-.199-1.471-.669-2.86-1.406-4.169-.74-1.305-1.659-2.425-2.763-3.365-1.104-.935-2.364-1.606-3.769-2.007-1.407-.405-2.78-.503-4.116-.303-3.018.402-5.178 1.342-6.486 2.814-1.303 1.477-2.056 3.049-2.257 4.721-.203 1.677-.052 3.301.449 4.873.505 1.572 1.122 2.663 1.862 3.266.129.066.283.168.449.304.168.134.352.265.558.4.062 0 .131.032.199.097l-.102-.048-.098-.048.35.2c.101.07.218.102.353.102-.135-.069-.236-.102-.303-.102-.069 0-.134-.033-.2-.103 1.205.472 2.008.472 2.409 0 .404-.465.502-1.034.301-1.704 0-.134-.018-.27-.049-.406-.035-.13-.086-.265-.15-.4-.136-.465-.2-.837-.2-1.104 0-1.27.454-2.363 1.356-3.266.903-.905 1.958-1.359 3.163-1.359 1.272 0 2.345.454 3.213 1.359.871.902 1.309 1.996 1.309 3.266 0 1.877-.772 3.18-2.309 3.917-1.34.939-2.849 1.557-4.521 1.859-1.677.301-3.25.217-4.721-.254-1.476-.464-2.748-1.352-3.818-2.659-1.076-1.306-1.709-3.133-1.91-5.475-.2-2.413.184-4.473 1.151-6.182.974-1.709 2.277-3.046 3.921-4.019 1.642-.97 3.48-1.574 5.523-1.808 2.042-.231 4.036-.064 5.98.504 1.941.568 3.667 1.542 5.173 2.911 1.509 1.377 2.628 3.139 3.369 5.281z"/><g fill="#3F383A"><path d="M22.195 11.532c-.305-.077-.573-.077-.802 0-.152.077-.304.241-.457.487-.153.25-.231.66-.231 1.232v34.79c0 .536.078.925.231 1.177.153.247.305.391.457.427.229.116.498.116.802 0v1.491h-6.934v-1.491c.305.116.535.116.688 0 .189-.036.382-.18.572-.427.191-.252.286-.641.286-1.177v-31.465c-.992 3.974-1.891 7.546-2.693 10.717-.343 1.339-.669 2.657-.973 3.954-.308 1.301-.594 2.467-.86 3.497-.268 1.033-.48 1.874-.632 2.525-.152.648-.229.993-.229 1.03h-2.406c-.23-.878-.495-1.883-.802-3.009s-.612-2.292-.917-3.497l-.917-3.583c-.305-1.185-.593-2.351-.858-3.498-.688-2.672-1.376-5.387-2.064-8.137v31.408c0 .536.064.928.201 1.176.131.249.294.391.486.428.23.117.478.117.745 0v1.549h-4.872v-1.549c.306.117.536.117.689 0 .191-.037.374-.179.545-.428.171-.248.256-.64.256-1.176v-34.732c0-.572-.085-.982-.256-1.232-.171-.246-.354-.41-.545-.487-.153-.077-.383-.077-.689 0v-1.375h5.617l5.731 21.72 5.444-21.72h5.388v1.375z"/><path d="M31.366 48.041c0 .536.076.925.23 1.177.152.247.326.391.517.427.191.116.419.116.688 0v1.491h-6.878v-1.491c.267.116.516.116.744 0 .191-.036.364-.18.515-.427.156-.252.232-.641.232-1.177v-21.837c0-.495-.076-.868-.232-1.119-.15-.247-.324-.41-.515-.486-.229-.077-.477-.077-.744 0v-1.433h5.444v24.875zm.518-31.179c0 .727-.25 1.328-.747 1.805-.496.479-1.09.716-1.778.716s-1.257-.237-1.717-.716c-.461-.477-.689-1.079-.689-1.805 0-.687.228-1.262.689-1.719.46-.458 1.028-.689 1.717-.689s1.283.231 1.778.689c.497.458.747 1.032.747 1.719z"/><path d="M43 11.589h-.117l-.084-.028-.145-.029c-.267 0-.523.115-.772.343-.248.229-.372.709-.372 1.435v27.394c.116-.227.381-.715.801-1.461.421-.743.909-1.611 1.463-2.608.553-.993 1.136-2.034 1.748-3.123.611-1.089 1.185-2.121 1.718-3.095.538-.974.976-1.777 1.319-2.406.343-.632.536-.984.572-1.062.27-.534.384-.965.346-1.29-.04-.323-.144-.574-.315-.745-.173-.171-.382-.275-.63-.315-.251-.038-.431-.058-.545-.058h-.06v-1.375h6.135v1.375h-.06c-.114 0-.304.02-.572.058-.265.04-.562.144-.886.315-.327.171-.661.422-1.006.745-.343.325-.61.756-.803 1.29-.076.154-.465.86-1.171 2.121-.709 1.261-1.557 2.732-2.553 4.415.461 1.411.946 2.874 1.463 4.384.515 1.511 1.003 2.904 1.459 4.184.459 1.282.833 2.34 1.12 3.182l.484 1.432c.231.688.469 1.23.718 1.632.249.405.467.708.657.921.193.209.383.341.574.399.192.056.346.087.461.087l.113-.06v1.491h-7.853v-1.491l.056.06h.172c.114 0 .269-.031.46-.087.191-.059.342-.19.457-.399.118-.213.193-.516.232-.921.037-.401-.021-.943-.173-1.632-.04-.15-.153-.487-.343-1.004-.192-.515-.43-1.146-.716-1.89-.289-.747-.614-1.597-.975-2.554-.363-.95-.718-1.945-1.061-2.979-.498.956-.993 1.863-1.492 2.724-.496.857-.936 1.654-1.317 2.378v4.7c0 .766.125 1.232.372 1.404.25.172.505.259.772.259h.229l.117-.06v1.491h-6.935v-1.491l.113.06h.287c.193 0 .431-.087.718-.259.287-.172.428-.639.428-1.404v-34.732c0-.726-.142-1.206-.428-1.435-.288-.228-.525-.343-.718-.343l-.172.029-.115.028h-.113v-1.375h6.938v1.375z"/><path d="M64.778 22.708c.879 0 1.777.152 2.693.458.918.306 1.741.784 2.465 1.433.725.65 1.308 1.472 1.75 2.463.437.995.655 2.179.655 3.555v7.279999999999999h-11.402v5.901c0 2.369.41 4.061 1.23 5.073.822 1.014 1.843 1.498 3.068 1.462.726-.037 1.439-.164 2.15-.373.703-.21 1.316-.562 1.832-1.06.516-.495.945-1.206 1.29-2.121.343-.917.517-2.12.517-3.61h1.315v.802c0 1.03-.113 2.017-.341 2.954-.228.934-.63 1.745-1.203 2.434-.574.687-1.31 1.233-2.205 1.636-.902.399-2 .62-3.3.656-.917 0-1.85-.173-2.807-.516-.954-.344-1.813-.86-2.58-1.549-.765-.686-1.394-1.497-1.893-2.435-.495-.936-.742-1.996-.742-3.181v-1.348c0-.63-.008-1.365-.028-2.206-.021-.84-.031-1.747-.031-2.723 0-.975-.01-1.919-.028-2.839-.019-.917-.027-1.745-.027-2.493v-1.691c0-1.373.24-2.567.716-3.583.479-1.011 1.068-1.832 1.776-2.461.708-.633 1.509-1.107 2.408-1.435.899-.321 1.805-.483 2.722-.483zm3.727 13.699v-4.53c0-1.45-.096-2.663-.287-3.637-.191-.976-.452-1.759-.776-2.351s-.716-1.003-1.175-1.232c-.456-.228-.976-.343-1.547-.343-1.223 0-2.15.536-2.78 1.606-.631 1.068-.946 3.057-.946 5.958v4.53h7.511z"/></g><g fill="#3F383A"><path d="M115.893 48.098c.078.538.238.919.487 1.146.248.229.524.383.829.46.308.076.651.076 1.035 0v1.432h-8.427v-1.432c.345.076.651.076.916 0 .193-.077.365-.231.519-.46.152-.228.189-.608.113-1.146 0-.075-.105-.754-.313-2.033-.213-1.281-.467-2.972-.774-5.073h-7.337c-.383 2.102-.677 3.792-.889 5.073-.208 1.279-.314 1.958-.314 2.033-.114.538-.104.919.029 1.146.133.229.297.383.488.46.229.076.533.076.916 0v1.432h-5.502v-1.432c.346.076.688.076 1.032 0 .305-.077.583-.231.831-.46.249-.228.43-.608.544-1.146 0-.037.097-.602.286-1.69.193-1.086.453-2.522.775-4.299.326-1.776.696-3.792 1.118-6.045.419-2.257.839-4.566 1.261-6.936l3.437-18.799h2.925c1.107 6.993 2.102 13.238 2.98 18.741.379 2.369.743 4.681 1.09 6.935.342 2.256.657 4.271.944 6.047.286 1.777.524 3.219.716 4.326.189 1.11.285 1.683.285 1.72zm-12.724-8.597h6.937c-.229-1.566-.487-3.245-.775-5.045-.287-1.795-.571-3.6-.858-5.415-.286-1.814-.573-3.582-.859-5.301-.287-1.721-.544-3.305-.774-4.757-.308 1.453-.61 3.037-.917 4.757l-.945 5.301c-.327 1.815-.642 3.62-.948 5.415-.305 1.8-.593 3.479-.861 5.045z"/><path d="M130.566 50.792l-.086.059-.086.057-.057.057-.257.113-.258.118c-.805.342-1.741.515-2.81.515-.61 0-1.203-.145-1.776-.433-.573-.282-1.07-.523-1.491-.715-.421-.192-.772-.275-1.059-.256-.287.018-.433.295-.433.829h-1.088v-6.877h1.376c-.078 1.223.057 2.273.401 3.153.23.763.677 1.479 1.348 2.146.665.67 1.671 1.004 3.009 1.004.877 0 1.603-.15 2.176-.456.994-.498 1.673-1.09 2.037-1.778.361-.688.507-1.402.429-2.15-.077-.742-.354-1.48-.83-2.206-.481-.725-1.062-1.396-1.749-2.006-.46-.345-.938-.707-1.433-1.09-.498-.382-.995-.782-1.49-1.203-1.339-1.07-2.398-2.035-3.18-2.894-.784-.86-1.385-1.664-1.808-2.407-.419-.746-.708-1.452-.859-2.122-.152-.666-.229-1.382-.229-2.148 0-.459.029-.879.084-1.261.061-.383.123-.725.201-1.032.116-.65.306-1.279.573-1.89.269-.612.652-1.157 1.147-1.636.494-.477 1.109-.867 1.833-1.174.726-.306 1.606-.458 2.64-.458.571 0 1.145.125 1.718.371.573.25 1.087.48 1.545.688.46.213.824.308 1.09.285.269-.017.401-.314.401-.887h1.088v7.108h-1.489c.039-1.147-.094-2.179-.4-3.095-.269-.802-.734-1.526-1.403-2.178-.671-.65-1.655-.975-2.952-.975-1.033 0-1.873.229-2.522.687-.344.27-.64.661-.888 1.176-.249.515-.394 1.082-.431 1.691-.037.61.059 1.27.287 1.977.228.708.688 1.368 1.376 1.975.074.117.18.232.314.346.132.114.278.21.429.287l.288.228.229.229c.421.346.85.688 1.289 1.035.44.341.889.687 1.347 1.029 1.07.917 1.958 1.749 2.669 2.495.706.745 1.295 1.442 1.776 2.092.474.651.829 1.262 1.059 1.835.229.571.361 1.125.4 1.659.384 1.759.315 3.241-.201 4.443-.515 1.205-1.176 2.15-1.977 2.835h-.059c0 .08-.037.119-.113.119-.076.075-.152.132-.229.169l-.345.231c-.113.075-.229.133-.344.169v.059l-.114.027-.113.031z"/><path d="M143.004 10.157v15.129l.399-.573c.191-.266.489-.553.891-.859.4-.304.907-.574 1.516-.802.614-.23 1.341-.344 2.18-.344h.173c.802 0 1.596.162 2.379.485.78.328 1.477.813 2.091 1.462.611.651 1.098 1.482 1.462 2.494.364 1.013.544 2.206.544 3.582v17.31c0 .726.133 1.185.403 1.377.266.19.495.286.687.286h.288l.113-.06v1.491h-6.937v-1.491l.114.06h.232c.227 0 .456-.077.687-.231.229-.15.38-.534.458-1.145v-6.9350000000000005c0-1.337-.01-2.694-.027-4.07-.021-1.376-.029-2.617-.029-3.723v-4.1290000000000004h-.059v-.056c-.076-1.951-.304-3.326-.688-4.128-.382-.802-1.049-1.239-2.006-1.317h-.17c-1.186 0-2.217.451-3.098 1.348-.876.899-1.412 2.455-1.603 4.671v18.053c0 .726.124 1.185.372 1.377.248.19.487.286.716.286h.229l.113-.06v1.491h-6.933v-1.491l.114.06h.287c.19 0 .419-.096.688-.286.265-.192.399-.651.399-1.377v-34.79c0-.726-.135-1.203-.399-1.432-.27-.229-.498-.345-.688-.345l-.174.029-.113.028h-.114v-1.375h5.503z"/><path d="M164.552 48.041c0 .536.086.925.26 1.177.17.247.333.391.487.427.188.116.438.116.743 0v1.491h-6.938v-1.491c.308.116.575.116.804 0 .118-.036.269-.18.46-.427.192-.252.288-.641.288-1.177v-34.731c0-.574-.096-.985-.288-1.234-.191-.248-.342-.409-.46-.486-.229-.115-.496-.115-.804 0v-1.375h5.447v37.826z"/><path d="M177.561 22.708c.878 0 1.776.152 2.694.458.917.306 1.739.784 2.465 1.433.724.65 1.307 1.472 1.749 2.463.437.995.657 2.179.657 3.555v7.279999999999999h-11.404v5.901c0 2.369.411 4.061 1.232 5.073.82 1.014 1.842 1.498 3.066 1.462.726-.037 1.441-.164 2.15-.373.704-.21 1.318-.562 1.831-1.06.517-.495.944-1.206 1.291-2.121.343-.917.515-2.12.515-3.61h1.318v.802c0 1.03-.115 2.017-.342 2.954-.229.934-.632 1.745-1.203 2.434-.575.687-1.312 1.233-2.207 1.636-.9.399-1.998.62-3.299.656-.916 0-1.851-.173-2.808-.516-.953-.344-1.815-.86-2.579-1.549-.765-.686-1.395-1.497-1.892-2.435-.497-.936-.744-1.996-.744-3.181v-1.348c0-.63-.01-1.365-.027-2.206-.021-.84-.031-1.747-.031-2.723 0-.975-.01-1.919-.025-2.839-.02-.917-.031-1.745-.031-2.493v-1.691c0-1.373.239-2.567.719-3.583.477-1.011 1.067-1.832 1.774-2.461.708-.633 1.51-1.107 2.408-1.435.899-.321 1.805-.483 2.723-.483zm3.727 13.699v-4.53c0-1.45-.097-2.663-.288-3.637-.189-.976-.448-1.759-.774-2.351-.325-.592-.717-1.003-1.174-1.232-.458-.228-.977-.343-1.548-.343-1.223 0-2.148.536-2.78 1.606-.63 1.068-.947 3.057-.947 5.958v4.53h7.511z"/><path d="M209.485 23.166v1.49c-.229-.114-.499-.095-.803.057-.266.116-.544.364-.831.747-.286.383-.542 1.029-.773 1.95-.039.077-.193.533-.457 1.372-.269.844-.583 1.95-.945 3.326-.366 1.377-.774 2.933-1.232 4.672-.46 1.739-.959 3.524-1.491 5.359-.538 1.833-1.053 3.638-1.548 5.415-.496 1.778-.944 3.4-1.346 4.871s-.765 2.702-1.09 3.697c-.325.994-.546 1.604-.659 1.836-.497 1.066-1.186 1.993-2.064 2.776-.878.784-1.909 1.213-3.095 1.29-.304 0-.61-.02-.916-.056-.305-.039-.63-.113-.975-.229-.536-.152-1.059-.431-1.576-.834-.515-.4-.945-.896-1.288-1.489-.346-.592-.581-1.241-.72-1.947-.133-.709-.084-1.462.145-2.264l.029-.06.027-.055c0-.078.02-.137.059-.173.192-.688.573-1.204 1.145-1.549.573-.343 1.206-.419 1.893-.229.688.191 1.205.583 1.548 1.176.344.593.439 1.232.287 1.919-.152.649-.515 1.146-1.09 1.489-.571.346-1.184.462-1.831.346.035 1.261.591 2.043 1.659 2.351.612.19 1.127.084 1.55-.317.418-.399.819-.943 1.203-1.632.074-.114.303-.88.688-2.292.38-1.415.856-3.095 1.433-5.045-.31-1.109-.682-2.492-1.119-4.155-.44-1.659-.916-3.371-1.433-5.128-.517-1.759-1.014-3.519-1.489-5.274-.479-1.758-.909-3.344-1.289-4.758-.384-1.413-.72-2.598-1.004-3.555-.285-.952-.433-1.468-.433-1.546-.268-.764-.554-1.326-.856-1.691-.308-.363-.612-.563-.92-.602-.305-.115-.647-.095-1.031.056v-1.317h5.79v1.317c-.343-.036-.61 0-.805.116-.152.114-.234.344-.258.687-.02.345.088.88.318 1.606.458 1.489.84 2.828 1.145 4.013.308 1.183.65 2.52 1.035 4.01.38 1.492.771 3.001 1.17 4.527.401 1.529.795 3.012 1.179 4.442l.974 3.696c.647-2.139 1.29-4.385 1.92-6.732.632-2.35 1.201-4.502 1.72-6.449.517-1.949.944-3.571 1.287-4.872.347-1.299.536-2.005.573-2.119.191-.921.238-1.566.145-1.95-.094-.382-.238-.63-.43-.747-.267-.152-.594-.171-.973-.057v-1.49h7.848z"/></g></svg>