<?xml version="1.0" encoding="utf-8"?>
<!-- Generator: Adobe Illustrator 16.0.0, SVG Export Plug-In . SVG Version: 6.00 Build 0)  -->
<!DOCTYPE svg PUBLIC "-//W3C//DTD SVG 1.1//EN" "http://www.w3.org/Graphics/SVG/1.1/DTD/svg11.dtd">
<svg version="1.1" id="Layer_1" xmlns="http://www.w3.org/2000/svg" xmlns:xlink="http://www.w3.org/1999/xlink" x="0px" y="0px"
	 width="209.52px" height="72px" viewBox="0 0 209.52 72" enable-background="new 0 0 209.52 72" xml:space="preserve">
<g>
	<path fill="#FBE7A8" d="M126.314,8.82c0.601,2.077,0.869,4.25,0.803,6.528c-0.066,2.277-0.587,4.505-1.558,6.681
		c-0.971,2.178-2.445,4.238-4.42,6.182c-1.976,1.94-4.473,3.616-7.485,5.022c-2.076,1.072-4.203,1.893-6.379,2.462
		c-2.178,0.568-4.405,0.952-6.683,1.153c1.813,1.676,3.233,3.667,4.272,5.979c1.039,2.311,1.556,4.906,1.556,7.785
		c0,3.482-0.702,6.517-2.107,9.092c-1.413,2.58-3.169,4.774-5.279,6.582c-2.108,1.81-4.451,3.164-7.032,4.066
		c-2.579,0.909-4.975,1.396-7.181,1.46c-2.348,0.135-5.058-0.118-8.142-0.752c-3.081-0.639-6.024-1.795-8.842-3.466
		c-2.812-1.678-5.242-4.019-7.281-7.037c-2.043-3.012-3.163-6.83-3.368-11.45C56.99,44.484,57.458,40.45,58.595,37
		c1.141-3.446,2.65-6.314,4.523-8.588c1.875-2.278,3.936-4.019,6.181-5.226c2.243-1.206,4.402-1.941,6.478-2.211
		c-1.475-1.338-2.379-3.181-2.715-5.523c-0.334-2.346-0.113-4.624,0.657-6.833c0.768-2.21,2.109-4.152,4.018-5.828
		c1.909-1.672,4.368-2.576,7.387-2.71c3.012-0.135,5.322,0.281,6.929,1.255c1.607,0.969,2.643,2.06,3.115,3.266
		c0.47,1.201,0.452,2.36-0.049,3.463c-0.502,1.108-1.39,1.692-2.661,1.757c-1.275,0.069-2.06-0.201-2.362-0.801
		c-0.304-0.606-0.455-1.271-0.455-2.01c0-0.738-0.015-1.522-0.05-2.359c-0.032-0.839-0.383-1.526-1.055-2.062
		c-1.071-0.536-2.244-0.736-3.515-0.601c-1.272,0.134-2.446,0.601-3.517,1.406c-1.071,0.801-1.926,1.99-2.562,3.566
		c-0.638,1.573-0.887,3.465-0.753,5.678c0.2,2.208,0.786,3.85,1.76,4.921c0.967,1.071,1.989,1.808,3.059,2.208
		c1.207,0.47,2.582,0.671,4.124,0.606v2.309c-1.542,0.069-3.183,0.271-4.923,0.604c-1.476,0.267-3.099,0.686-4.872,1.255
		c-1.775,0.568-3.435,1.422-4.977,2.564c-1.607,1.07-2.964,2.394-4.067,3.965c-1.103,1.574-1.995,3.369-2.662,5.376
		c-0.67,2.011-1.157,4.153-1.459,6.431c-0.298,2.275-0.417,4.62-0.353,7.032c0.069,2.346,0.536,4.709,1.407,7.084
		c0.871,2.38,2.093,4.521,3.672,6.43c1.571,1.909,3.496,3.451,5.776,4.619c2.272,1.174,4.787,1.794,7.534,1.861
		c2.813,0.064,5.559-0.384,8.237-1.356c2.678-0.97,5.024-2.328,7.032-4.069c2.01-1.741,3.651-3.698,4.928-5.879
		c1.269-2.174,1.908-4.402,1.908-6.681c0-3.347-0.59-6.294-1.764-8.841c-1.168-2.544-2.695-4.521-4.57-5.929
		c-2.812,0.335-5.512,0.573-8.085,0.704c-2.58,0.136-4.943,0.368-7.086,0.703c-2.143,0.334-3.952,0.868-5.424,1.606
		c-1.472,0.739-2.51,1.876-3.117,3.418c-0.935,2.277-1.302,4.304-1.103,6.079c0.201,1.774,0.737,3.313,1.606,4.619
		c0.871,1.309,1.943,2.33,3.217,3.065c1.272,0.735,2.577,1.104,3.917,1.104c0.135,0,0.319,0,0.552,0s0.519,0,0.855,0
		c0.4,0,0.768,0,1.102,0c0.337,0,0.639,0,0.909,0c1.071-0.199,1.639-0.584,1.705-1.153c0.07-0.566-0.065-1.087-0.402-1.557
		c-0.134-0.134-0.248-0.254-0.35-0.352c-0.098-0.103-0.218-0.216-0.352-0.352c-0.601-0.87-0.903-1.775-0.903-2.714
		c0-1.271,0.434-2.343,1.303-3.214c0.871-0.869,1.941-1.309,3.218-1.309c1.27,0,2.358,0.439,3.265,1.309
		c0.904,0.871,1.354,1.942,1.354,3.214c0,0.536-0.167,1.173-0.502,1.909c-0.602,1.741-1.522,3.114-2.761,4.12
		c-1.242,1.002-2.58,1.706-4.018,2.109c-1.443,0.399-2.932,0.552-4.474,0.45c-1.54-0.099-2.88-0.315-4.018-0.65
		c-2.275-0.805-4.104-2.326-5.472-4.574c-1.375-2.24-2.061-4.7-2.061-7.384c0-2.677,0.736-5.306,2.206-7.886
		c1.477-2.579,3.819-4.636,7.036-6.182c1.474-0.735,3.015-1.201,4.62-1.404l-0.097-0.099h0.401c0.065-0.066,0.134-0.102,0.199-0.102
		c1.272-0.266,2.813-0.537,4.624-0.802c1.807-0.271,3.479-0.47,5.02-0.605c2.012-0.2,3.986-0.399,5.928-0.601
		c4.624-0.736,8.491-1.791,11.608-3.164c3.112-1.375,5.592-2.932,7.435-4.672c1.839-1.743,3.112-3.587,3.813-5.528
		c0.704-1.943,0.958-3.78,0.757-5.527c-0.199-1.471-0.669-2.86-1.406-4.169c-0.74-1.305-1.659-2.425-2.763-3.365
		c-1.104-0.935-2.364-1.606-3.769-2.007c-1.407-0.405-2.78-0.503-4.116-0.303c-3.018,0.402-5.178,1.342-6.486,2.814
		c-1.303,1.477-2.056,3.049-2.257,4.721c-0.203,1.677-0.052,3.301,0.449,4.873c0.505,1.572,1.122,2.663,1.862,3.266
		c0.129,0.066,0.283,0.168,0.449,0.304c0.168,0.134,0.352,0.265,0.558,0.4c0.062,0,0.131,0.032,0.199,0.097
		c-0.068,0-0.102-0.012-0.102-0.048c0-0.032-0.035-0.048-0.098-0.048c0.131,0.064,0.248,0.134,0.35,0.2
		c0.101,0.07,0.218,0.102,0.353,0.102c-0.135-0.069-0.236-0.102-0.303-0.102c-0.069,0-0.134-0.033-0.2-0.103
		c1.205,0.472,2.008,0.472,2.409,0c0.404-0.465,0.502-1.034,0.301-1.704c0-0.134-0.018-0.27-0.049-0.406
		c-0.035-0.13-0.086-0.265-0.15-0.4c-0.136-0.465-0.2-0.837-0.2-1.104c0-1.27,0.454-2.363,1.356-3.266
		c0.903-0.905,1.958-1.359,3.163-1.359c1.272,0,2.345,0.454,3.213,1.359c0.871,0.902,1.309,1.996,1.309,3.266
		c0,1.877-0.772,3.18-2.309,3.917c-1.34,0.939-2.849,1.557-4.521,1.859c-1.677,0.301-3.25,0.217-4.721-0.254
		c-1.476-0.464-2.748-1.352-3.818-2.659c-1.076-1.306-1.709-3.133-1.91-5.475c-0.2-2.413,0.184-4.473,1.151-6.182
		c0.974-1.709,2.277-3.046,3.921-4.019c1.642-0.97,3.48-1.574,5.523-1.808c2.042-0.231,4.036-0.064,5.98,0.504
		c1.941,0.568,3.667,1.542,5.173,2.911C124.454,4.916,125.573,6.678,126.314,8.82z"/>
	<g>
		<path fill="#3F383A" d="M22.195,11.532c-0.305-0.077-0.573-0.077-0.802,0c-0.152,0.077-0.304,0.241-0.457,0.487
			c-0.153,0.25-0.231,0.66-0.231,1.232v34.79c0,0.536,0.078,0.925,0.231,1.177c0.153,0.247,0.305,0.391,0.457,0.427
			c0.229,0.116,0.498,0.116,0.802,0v1.491h-6.934v-1.491c0.305,0.116,0.535,0.116,0.688,0c0.189-0.036,0.382-0.18,0.572-0.427
			c0.191-0.252,0.286-0.641,0.286-1.177V16.576c-0.992,3.974-1.891,7.546-2.693,10.717c-0.343,1.339-0.669,2.657-0.973,3.954
			c-0.308,1.301-0.594,2.467-0.86,3.497c-0.268,1.033-0.48,1.874-0.632,2.525c-0.152,0.648-0.229,0.993-0.229,1.03H9.014
			c-0.23-0.878-0.495-1.883-0.802-3.009S7.6,32.998,7.295,31.793c-0.308-1.203-0.612-2.398-0.917-3.583
			c-0.305-1.185-0.593-2.351-0.858-3.498c-0.688-2.672-1.376-5.387-2.064-8.137v31.408c0,0.536,0.064,0.928,0.201,1.176
			c0.131,0.249,0.294,0.391,0.486,0.428c0.23,0.117,0.478,0.117,0.745,0v1.549H0.016v-1.549c0.306,0.117,0.536,0.117,0.689,0
			c0.191-0.037,0.374-0.179,0.545-0.428c0.171-0.248,0.256-0.64,0.256-1.176V13.251c0-0.572-0.085-0.982-0.256-1.232
			c-0.171-0.246-0.354-0.41-0.545-0.487c-0.153-0.077-0.383-0.077-0.689,0v-1.375h5.617l5.731,21.72l5.444-21.72h5.388V11.532z"/>
		<path fill="#3F383A" d="M31.366,48.041c0,0.536,0.076,0.925,0.23,1.177c0.152,0.247,0.326,0.391,0.517,0.427
			c0.191,0.116,0.419,0.116,0.688,0v1.491h-6.878v-1.491c0.267,0.116,0.516,0.116,0.744,0c0.191-0.036,0.364-0.18,0.515-0.427
			c0.156-0.252,0.232-0.641,0.232-1.177V26.204c0-0.495-0.076-0.868-0.232-1.119c-0.15-0.247-0.324-0.41-0.515-0.486
			c-0.229-0.077-0.477-0.077-0.744,0v-1.433h5.444V48.041z M31.884,16.862c0,0.727-0.25,1.328-0.747,1.805
			c-0.496,0.479-1.09,0.716-1.778,0.716s-1.257-0.237-1.717-0.716c-0.461-0.477-0.689-1.079-0.689-1.805
			c0-0.687,0.228-1.262,0.689-1.719c0.46-0.458,1.028-0.689,1.717-0.689s1.283,0.231,1.778,0.689
			C31.634,15.601,31.884,16.175,31.884,16.862z"/>
		<path fill="#3F383A" d="M43,11.589h-0.117c-0.037,0-0.064-0.009-0.084-0.028c-0.021-0.019-0.067-0.029-0.145-0.029
			c-0.267,0-0.523,0.115-0.772,0.343c-0.248,0.229-0.372,0.709-0.372,1.435v27.394c0.116-0.227,0.381-0.715,0.801-1.461
			c0.421-0.743,0.909-1.611,1.463-2.608c0.553-0.993,1.136-2.034,1.748-3.123c0.611-1.089,1.185-2.121,1.718-3.095
			c0.538-0.974,0.976-1.777,1.319-2.406c0.343-0.632,0.536-0.984,0.572-1.062c0.27-0.534,0.384-0.965,0.346-1.29
			c-0.04-0.323-0.144-0.574-0.315-0.745c-0.173-0.171-0.382-0.275-0.63-0.315c-0.251-0.038-0.431-0.058-0.545-0.058h-0.06v-1.375
			h6.135v1.375h-0.06c-0.114,0-0.304,0.02-0.572,0.058c-0.265,0.04-0.562,0.144-0.886,0.315c-0.327,0.171-0.661,0.422-1.006,0.745
			c-0.343,0.325-0.61,0.756-0.803,1.29c-0.076,0.154-0.465,0.86-1.171,2.121c-0.709,1.261-1.557,2.732-2.553,4.415
			c0.461,1.411,0.946,2.874,1.463,4.384c0.515,1.511,1.003,2.904,1.459,4.184c0.459,1.282,0.833,2.34,1.12,3.182
			c0.286,0.839,0.447,1.318,0.484,1.432c0.231,0.688,0.469,1.23,0.718,1.632c0.249,0.405,0.467,0.708,0.657,0.921
			c0.193,0.209,0.383,0.341,0.574,0.399c0.192,0.056,0.346,0.087,0.461,0.087c0.037,0,0.073-0.021,0.113-0.06v1.491h-7.853v-1.491
			c0,0.039,0.019,0.06,0.056,0.06h0.172c0.114,0,0.269-0.031,0.46-0.087c0.191-0.059,0.342-0.19,0.457-0.399
			c0.118-0.213,0.193-0.516,0.232-0.921c0.037-0.401-0.021-0.943-0.173-1.632c-0.04-0.15-0.153-0.487-0.343-1.004
			c-0.192-0.515-0.43-1.146-0.716-1.89c-0.289-0.747-0.614-1.597-0.975-2.554c-0.363-0.95-0.718-1.945-1.061-2.979
			c-0.498,0.956-0.993,1.863-1.492,2.724c-0.496,0.857-0.936,1.654-1.317,2.378v4.7c0,0.766,0.125,1.232,0.372,1.404
			c0.25,0.172,0.505,0.259,0.772,0.259h0.229c0.041,0,0.077-0.021,0.117-0.06v1.491h-6.935v-1.491
			c0.037,0.039,0.076,0.06,0.113,0.06h0.287c0.193,0,0.431-0.087,0.718-0.259c0.287-0.172,0.428-0.639,0.428-1.404V13.31
			c0-0.726-0.142-1.206-0.428-1.435c-0.288-0.228-0.525-0.343-0.718-0.343c-0.076,0-0.135,0.01-0.172,0.029
			s-0.076,0.028-0.115,0.028h-0.113v-1.375H43V11.589z"/>
		<path fill="#3F383A" d="M64.778,22.708c0.879,0,1.777,0.152,2.693,0.458c0.918,0.306,1.741,0.784,2.465,1.433
			c0.725,0.65,1.308,1.472,1.75,2.463c0.437,0.995,0.655,2.179,0.655,3.555v5.789v0.172v1.319H60.939v5.901
			c0,2.369,0.41,4.061,1.23,5.073c0.822,1.014,1.843,1.498,3.068,1.462c0.726-0.037,1.439-0.164,2.15-0.373
			c0.703-0.21,1.316-0.562,1.832-1.06c0.516-0.495,0.945-1.206,1.29-2.121c0.343-0.917,0.517-2.12,0.517-3.61h1.315v0.802
			c0,1.03-0.113,2.017-0.341,2.954c-0.228,0.934-0.63,1.745-1.203,2.434c-0.574,0.687-1.31,1.233-2.205,1.636
			c-0.902,0.399-2,0.62-3.3,0.656c-0.917,0-1.85-0.173-2.807-0.516c-0.954-0.344-1.813-0.86-2.58-1.549
			c-0.765-0.686-1.394-1.497-1.893-2.435c-0.495-0.936-0.742-1.996-0.742-3.181c0-0.266,0-0.715,0-1.348
			c0-0.63-0.008-1.365-0.028-2.206c-0.021-0.84-0.031-1.747-0.031-2.723c0-0.975-0.01-1.919-0.028-2.839
			c-0.019-0.917-0.027-1.745-0.027-2.493c0-0.744,0-1.308,0-1.691c0-1.373,0.24-2.567,0.716-3.583
			c0.479-1.011,1.068-1.832,1.776-2.461c0.708-0.633,1.509-1.107,2.408-1.435C62.955,22.87,63.861,22.708,64.778,22.708z
			 M68.505,36.407v-4.53c0-1.45-0.096-2.663-0.287-3.637c-0.191-0.976-0.452-1.759-0.776-2.351s-0.716-1.003-1.175-1.232
			c-0.456-0.228-0.976-0.343-1.547-0.343c-1.223,0-2.15,0.536-2.78,1.606c-0.631,1.068-0.946,3.057-0.946,5.958v4.53H68.505z"/>
	</g>
	<g>
		<path fill="#3F383A" d="M115.893,48.098c0.078,0.538,0.238,0.919,0.487,1.146c0.248,0.229,0.524,0.383,0.829,0.46
			c0.308,0.076,0.651,0.076,1.035,0v1.432h-8.427v-1.432c0.345,0.076,0.651,0.076,0.916,0c0.193-0.077,0.365-0.231,0.519-0.46
			c0.152-0.228,0.189-0.608,0.113-1.146c0-0.075-0.105-0.754-0.313-2.033c-0.213-1.281-0.467-2.972-0.774-5.073h-7.337
			c-0.383,2.102-0.677,3.792-0.889,5.073c-0.208,1.279-0.314,1.958-0.314,2.033c-0.114,0.538-0.104,0.919,0.029,1.146
			c0.133,0.229,0.297,0.383,0.488,0.46c0.229,0.076,0.533,0.076,0.916,0v1.432h-5.502v-1.432c0.346,0.076,0.688,0.076,1.032,0
			c0.305-0.077,0.583-0.231,0.831-0.46c0.249-0.228,0.43-0.608,0.544-1.146c0-0.037,0.097-0.602,0.286-1.69
			c0.193-1.086,0.453-2.522,0.775-4.299c0.326-1.776,0.696-3.792,1.118-6.045c0.419-2.257,0.839-4.566,1.261-6.936l3.437-18.799
			h2.925c1.107,6.993,2.102,13.238,2.98,18.741c0.379,2.369,0.743,4.681,1.09,6.935c0.342,2.256,0.657,4.271,0.944,6.047
			c0.286,1.777,0.524,3.219,0.716,4.326C115.797,47.488,115.893,48.061,115.893,48.098z M103.169,39.501h6.937
			c-0.229-1.566-0.487-3.245-0.775-5.045c-0.287-1.795-0.571-3.6-0.858-5.415c-0.286-1.814-0.573-3.582-0.859-5.301
			c-0.287-1.721-0.544-3.305-0.774-4.757c-0.308,1.453-0.61,3.037-0.917,4.757c-0.307,1.719-0.62,3.487-0.945,5.301
			c-0.327,1.815-0.642,3.62-0.948,5.415C103.725,36.256,103.437,37.935,103.169,39.501z"/>
		<path fill="#3F383A" d="M130.566,50.792c-0.039,0.039-0.068,0.059-0.086,0.059c-0.02,0-0.049,0.02-0.086,0.057l-0.057,0.057
			c-0.076,0.039-0.163,0.076-0.257,0.113c-0.098,0.039-0.182,0.077-0.258,0.118c-0.805,0.342-1.741,0.515-2.81,0.515
			c-0.61,0-1.203-0.145-1.776-0.433c-0.573-0.282-1.07-0.523-1.491-0.715c-0.421-0.192-0.772-0.275-1.059-0.256
			c-0.287,0.018-0.433,0.295-0.433,0.829h-1.088v-6.877h1.376c-0.078,1.223,0.057,2.273,0.401,3.153
			c0.23,0.763,0.677,1.479,1.348,2.146c0.665,0.67,1.671,1.004,3.009,1.004c0.877,0,1.603-0.15,2.176-0.456
			c0.994-0.498,1.673-1.09,2.037-1.778c0.361-0.688,0.507-1.402,0.429-2.15c-0.077-0.742-0.354-1.48-0.83-2.206
			c-0.481-0.725-1.062-1.396-1.749-2.006c-0.46-0.345-0.938-0.707-1.433-1.09c-0.498-0.382-0.995-0.782-1.49-1.203
			c-1.339-1.07-2.398-2.035-3.18-2.894c-0.784-0.86-1.385-1.664-1.808-2.407c-0.419-0.746-0.708-1.452-0.859-2.122
			c-0.152-0.666-0.229-1.382-0.229-2.148c0-0.459,0.029-0.879,0.084-1.261c0.061-0.383,0.123-0.725,0.201-1.032
			c0.116-0.65,0.306-1.279,0.573-1.89c0.269-0.612,0.652-1.157,1.147-1.636c0.494-0.477,1.109-0.867,1.833-1.174
			c0.726-0.306,1.606-0.458,2.64-0.458c0.571,0,1.145,0.125,1.718,0.371c0.573,0.25,1.087,0.48,1.545,0.688
			c0.46,0.213,0.824,0.308,1.09,0.285c0.269-0.017,0.401-0.314,0.401-0.887h1.088v7.108h-1.489c0.039-1.147-0.094-2.179-0.4-3.095
			c-0.269-0.802-0.734-1.526-1.403-2.178c-0.671-0.65-1.655-0.975-2.952-0.975c-1.033,0-1.873,0.229-2.522,0.687
			c-0.344,0.27-0.64,0.661-0.888,1.176c-0.249,0.515-0.394,1.082-0.431,1.691c-0.037,0.61,0.059,1.27,0.287,1.977
			c0.228,0.708,0.688,1.368,1.376,1.975c0.074,0.117,0.18,0.232,0.314,0.346c0.132,0.114,0.278,0.21,0.429,0.287
			c0.115,0.079,0.21,0.153,0.288,0.228c0.076,0.078,0.15,0.155,0.229,0.229c0.421,0.346,0.85,0.688,1.289,1.035
			c0.44,0.341,0.889,0.687,1.347,1.029c1.07,0.917,1.958,1.749,2.669,2.495c0.706,0.745,1.295,1.442,1.776,2.092
			c0.474,0.651,0.829,1.262,1.059,1.835c0.229,0.571,0.361,1.125,0.4,1.659c0.384,1.759,0.315,3.241-0.201,4.443
			c-0.515,1.205-1.176,2.15-1.977,2.835h-0.059c0,0.08-0.037,0.119-0.113,0.119c-0.076,0.075-0.152,0.132-0.229,0.169
			c-0.115,0.078-0.231,0.154-0.345,0.231c-0.113,0.075-0.229,0.133-0.344,0.169v0.059c-0.04,0-0.079,0.009-0.114,0.027
			C130.643,50.783,130.604,50.792,130.566,50.792z"/>
		<path fill="#3F383A" d="M143.004,10.157v15.129c0.076-0.114,0.21-0.304,0.399-0.573c0.191-0.266,0.489-0.553,0.891-0.859
			c0.4-0.304,0.907-0.574,1.516-0.802c0.614-0.23,1.341-0.344,2.18-0.344h0.173c0.802,0,1.596,0.162,2.379,0.485
			c0.78,0.328,1.477,0.813,2.091,1.462c0.611,0.651,1.098,1.482,1.462,2.494c0.364,1.013,0.544,2.206,0.544,3.582v17.31
			c0,0.726,0.133,1.185,0.403,1.377c0.266,0.19,0.495,0.286,0.687,0.286h0.288c0.037,0,0.074-0.021,0.113-0.06v1.491h-6.937v-1.491
			c0.037,0.039,0.076,0.06,0.114,0.06h0.232c0.227,0,0.456-0.077,0.687-0.231c0.229-0.15,0.38-0.534,0.458-1.145
			c0-0.802,0-1.824,0-3.066s0-2.53,0-3.869c0-1.337-0.01-2.694-0.027-4.07c-0.021-1.376-0.029-2.617-0.029-3.723
			c0-1.109,0-2.037,0-2.781c0-0.747,0-1.193,0-1.348h-0.059v-0.056c-0.076-1.951-0.304-3.326-0.688-4.128
			c-0.382-0.802-1.049-1.239-2.006-1.317h-0.17c-1.186,0-2.217,0.451-3.098,1.348c-0.876,0.899-1.412,2.455-1.603,4.671v18.053
			c0,0.726,0.124,1.185,0.372,1.377c0.248,0.19,0.487,0.286,0.716,0.286h0.229c0.037,0,0.076-0.021,0.113-0.06v1.491h-6.933v-1.491
			c0.038,0.039,0.075,0.06,0.114,0.06h0.287c0.19,0,0.419-0.096,0.688-0.286c0.265-0.192,0.399-0.651,0.399-1.377v-34.79
			c0-0.726-0.135-1.203-0.399-1.432c-0.27-0.229-0.498-0.345-0.688-0.345c-0.076,0-0.135,0.012-0.174,0.029
			c-0.037,0.019-0.076,0.028-0.113,0.028h-0.114v-1.375H143.004z"/>
		<path fill="#3F383A" d="M164.552,48.041c0,0.536,0.086,0.925,0.26,1.177c0.17,0.247,0.333,0.391,0.487,0.427
			c0.188,0.116,0.438,0.116,0.743,0v1.491h-6.938v-1.491c0.308,0.116,0.575,0.116,0.804,0c0.118-0.036,0.269-0.18,0.46-0.427
			c0.192-0.252,0.288-0.641,0.288-1.177V13.31c0-0.574-0.096-0.985-0.288-1.234c-0.191-0.248-0.342-0.409-0.46-0.486
			c-0.229-0.115-0.496-0.115-0.804,0v-1.375h5.447v3.095V48.041z"/>
		<path fill="#3F383A" d="M177.561,22.708c0.878,0,1.776,0.152,2.694,0.458c0.917,0.306,1.739,0.784,2.465,1.433
			c0.724,0.65,1.307,1.472,1.749,2.463c0.437,0.995,0.657,2.179,0.657,3.555v5.789v0.172v1.319h-11.404v5.901
			c0,2.369,0.411,4.061,1.232,5.073c0.82,1.014,1.842,1.498,3.066,1.462c0.726-0.037,1.441-0.164,2.15-0.373
			c0.704-0.21,1.318-0.562,1.831-1.06c0.517-0.495,0.944-1.206,1.291-2.121c0.343-0.917,0.515-2.12,0.515-3.61h1.318v0.802
			c0,1.03-0.115,2.017-0.342,2.954c-0.229,0.934-0.632,1.745-1.203,2.434c-0.575,0.687-1.312,1.233-2.207,1.636
			c-0.9,0.399-1.998,0.62-3.299,0.656c-0.916,0-1.851-0.173-2.808-0.516c-0.953-0.344-1.815-0.86-2.579-1.549
			c-0.765-0.686-1.395-1.497-1.892-2.435c-0.497-0.936-0.744-1.996-0.744-3.181c0-0.266,0-0.715,0-1.348
			c0-0.63-0.01-1.365-0.027-2.206c-0.021-0.84-0.031-1.747-0.031-2.723c0-0.975-0.01-1.919-0.025-2.839
			c-0.02-0.917-0.031-1.745-0.031-2.493c0-0.744,0-1.308,0-1.691c0-1.373,0.239-2.567,0.719-3.583
			c0.477-1.011,1.067-1.832,1.774-2.461c0.708-0.633,1.51-1.107,2.408-1.435C175.737,22.87,176.643,22.708,177.561,22.708z
			 M181.288,36.407v-4.53c0-1.45-0.097-2.663-0.288-3.637c-0.189-0.976-0.448-1.759-0.774-2.351
			c-0.325-0.592-0.717-1.003-1.174-1.232c-0.458-0.228-0.977-0.343-1.548-0.343c-1.223,0-2.148,0.536-2.78,1.606
			c-0.63,1.068-0.947,3.057-0.947,5.958v4.53H181.288z"/>
		<path fill="#3F383A" d="M209.485,23.166v1.49c-0.229-0.114-0.499-0.095-0.803,0.057c-0.266,0.116-0.544,0.364-0.831,0.747
			c-0.286,0.383-0.542,1.029-0.773,1.95c-0.039,0.077-0.193,0.533-0.457,1.372c-0.269,0.844-0.583,1.95-0.945,3.326
			c-0.366,1.377-0.774,2.933-1.232,4.672c-0.46,1.739-0.959,3.524-1.491,5.359c-0.538,1.833-1.053,3.638-1.548,5.415
			c-0.496,1.778-0.944,3.4-1.346,4.871s-0.765,2.702-1.09,3.697c-0.325,0.994-0.546,1.604-0.659,1.836
			c-0.497,1.066-1.186,1.993-2.064,2.776c-0.878,0.784-1.909,1.213-3.095,1.29c-0.304,0-0.61-0.02-0.916-0.056
			c-0.305-0.039-0.63-0.113-0.975-0.229c-0.536-0.152-1.059-0.431-1.576-0.834c-0.515-0.4-0.945-0.896-1.288-1.489
			c-0.346-0.592-0.581-1.241-0.72-1.947c-0.133-0.709-0.084-1.462,0.145-2.264c0-0.041,0.01-0.06,0.029-0.06s0.027-0.02,0.027-0.055
			c0-0.078,0.02-0.137,0.059-0.173c0.192-0.688,0.573-1.204,1.145-1.549c0.573-0.343,1.206-0.419,1.893-0.229
			c0.688,0.191,1.205,0.583,1.548,1.176c0.344,0.593,0.439,1.232,0.287,1.919c-0.152,0.649-0.515,1.146-1.09,1.489
			c-0.571,0.346-1.184,0.462-1.831,0.346c0.035,1.261,0.591,2.043,1.659,2.351c0.612,0.19,1.127,0.084,1.55-0.317
			c0.418-0.399,0.819-0.943,1.203-1.632c0.074-0.114,0.303-0.88,0.688-2.292c0.38-1.415,0.856-3.095,1.433-5.045
			c-0.31-1.109-0.682-2.492-1.119-4.155c-0.44-1.659-0.916-3.371-1.433-5.128c-0.517-1.759-1.014-3.519-1.489-5.274
			c-0.479-1.758-0.909-3.344-1.289-4.758c-0.384-1.413-0.72-2.598-1.004-3.555c-0.285-0.952-0.433-1.468-0.433-1.546
			c-0.268-0.764-0.554-1.326-0.856-1.691c-0.308-0.363-0.612-0.563-0.92-0.602c-0.305-0.115-0.647-0.095-1.031,0.056v-1.317h5.79
			v1.317c-0.343-0.036-0.61,0-0.805,0.116c-0.152,0.114-0.234,0.344-0.258,0.687c-0.02,0.345,0.088,0.88,0.318,1.606
			c0.458,1.489,0.84,2.828,1.145,4.013c0.308,1.183,0.65,2.52,1.035,4.01c0.38,1.492,0.771,3.001,1.17,4.527
			c0.401,1.529,0.795,3.012,1.179,4.442c0.379,1.437,0.704,2.667,0.974,3.696c0.647-2.139,1.29-4.385,1.92-6.732
			c0.632-2.35,1.201-4.502,1.72-6.449c0.517-1.949,0.944-3.571,1.287-4.872c0.347-1.299,0.536-2.005,0.573-2.119
			c0.191-0.921,0.238-1.566,0.145-1.95c-0.094-0.382-0.238-0.63-0.43-0.747c-0.267-0.152-0.594-0.171-0.973-0.057v-1.49H209.485z"/>
	</g>
</g>
</svg>
